# xmcd CD database file
#
# Track frame offsets:
#	150
#	49677
#	70630
#	105252
#	133652
#	167912
#	193792
#	214582
#	237427
#	266937
#
# Disc length: 3768 seconds
#
# Revision: 0
# Processed by: cddbd v1.5PL3 Copyright (c) Steve Scherf et al.
# Submitted via: CDex 1.50
#
DISCID=8f0eb60a
DTITLE=渡辺貞夫 - My Dear Life
DYEAR=1977
DGENRE=Jazz
TTITLE0=Up Country
TTITLE1=Mzuri
TTITLE2=Nice Shot
TTITLE3=Boa Noite
TTITLE4=No Problem
TTITLE5=My Dear Life
TTITLE6=Orange Express
TTITLE7=Call Me
TTITLE8=Good For All Night
TTITLE9=Yes, I'm In Love
EXTD=YEAR: 1977
EXTT0=
EXTT1=
EXTT2=
EXTT3=
EXTT4=
EXTT5=
EXTT6=
EXTT7=
EXTT8=
EXTT9=
PLAYORDER=
